<svg width="185" height="35" viewBox="0 0 185 35" fill="none" xmlns="http://www.w3.org/2000/svg">
<path d="M0.288 22.824L2.592 20.16C3.96 21.48 5.352 22.476 6.768 23.148C8.208 23.796 9.708 24.12 11.268 24.12C13.068 24.12 14.532 23.724 15.66 22.932C16.812 22.14 17.388 21.132 17.388 19.908C17.388 18.804 16.992 17.952 16.2 17.352C15.408 16.728 14.1 16.26 12.276 15.948L8.064 15.264C5.76 14.88 4.032 14.148 2.88 13.068C1.752 11.964 1.188 10.512 1.188 8.712C1.188 6.528 2.04 4.776 3.744 3.456C5.448 2.136 7.692 1.476 10.476 1.476C12.276 1.476 14.064 1.776 15.84 2.376C17.616 2.952 19.212 3.792 20.628 4.896L18.54 7.776C17.172 6.744 15.804 5.976 14.436 5.472C13.068 4.944 11.688 4.68 10.296 4.68C8.664 4.68 7.344 5.028 6.336 5.724C5.328 6.42 4.824 7.32 4.824 8.424C4.824 9.456 5.172 10.248 5.868 10.8C6.564 11.328 7.716 11.724 9.324 11.988L13.392 12.636C16.032 13.068 17.976 13.86 19.224 15.012C20.496 16.14 21.132 17.676 21.132 19.62C21.132 20.772 20.892 21.828 20.412 22.788C19.932 23.748 19.248 24.564 18.36 25.236C17.496 25.908 16.44 26.436 15.192 26.82C13.944 27.18 12.576 27.36 11.088 27.36C9.072 27.36 7.128 26.964 5.256 26.172C3.384 25.38 1.728 24.264 0.288 22.824ZM24.2021 27V1.8L27.8021 1.008V10.512C28.5221 9.792 29.3381 9.252 30.2501 8.892C31.1861 8.508 32.2061 8.316 33.3101 8.316C35.3981 8.316 37.1141 8.988 38.4581 10.332C39.8021 11.652 40.4741 13.368 40.4741 15.48V27H36.8741V16.092C36.8741 14.652 36.4541 13.524 35.6141 12.708C34.7981 11.868 33.7061 11.448 32.3381 11.448C31.3781 11.448 30.5021 11.652 29.7101 12.06C28.9421 12.468 28.3061 13.056 27.8021 13.824V27H24.2021ZM43.7999 17.82C43.7999 16.5 44.0399 15.264 44.5199 14.112C45.0239 12.936 45.7079 11.928 46.5719 11.088C47.4359 10.224 48.4439 9.552 49.5959 9.072C50.7719 8.568 52.0199 8.316 53.3399 8.316C54.6599 8.316 55.8959 8.568 57.0479 9.072C58.2239 9.552 59.2319 10.224 60.0719 11.088C60.9359 11.928 61.6079 12.936 62.0879 14.112C62.5919 15.264 62.8439 16.5 62.8439 17.82C62.8439 19.164 62.5919 20.424 62.0879 21.6C61.6079 22.752 60.9359 23.76 60.0719 24.624C59.2319 25.464 58.2239 26.136 57.0479 26.64C55.8959 27.12 54.6599 27.36 53.3399 27.36C52.0199 27.36 50.7719 27.12 49.5959 26.64C48.4439 26.136 47.4359 25.464 46.5719 24.624C45.7079 23.76 45.0239 22.752 44.5199 21.6C44.0399 20.424 43.7999 19.164 43.7999 17.82ZM53.3399 24.192C54.9959 24.192 56.3999 23.58 57.5519 22.356C58.7279 21.108 59.3159 19.596 59.3159 17.82C59.3159 16.044 58.7279 14.544 57.5519 13.32C56.3999 12.096 54.9959 11.484 53.3399 11.484C51.6839 11.484 50.2679 12.096 49.0919 13.32C47.9159 14.544 47.3279 16.044 47.3279 17.82C47.3279 19.596 47.9039 21.108 49.0559 22.356C50.2319 23.58 51.6599 24.192 53.3399 24.192ZM66.249 34.452V8.676H69.813V10.44C70.557 9.768 71.409 9.264 72.369 8.928C73.329 8.568 74.349 8.388 75.429 8.388C76.725 8.388 77.937 8.64 79.065 9.144C80.193 9.624 81.165 10.284 81.981 11.124C82.821 11.964 83.481 12.96 83.961 14.112C84.441 15.264 84.681 16.5 84.681 17.82C84.681 19.14 84.441 20.388 83.961 21.564C83.481 22.716 82.821 23.712 81.981 24.552C81.165 25.392 80.181 26.064 79.029 26.568C77.877 27.048 76.653 27.288 75.357 27.288C74.349 27.288 73.365 27.132 72.405 26.82C71.469 26.508 70.617 26.064 69.849 25.488V34.452H66.249ZM74.961 11.52C73.929 11.52 72.969 11.712 72.081 12.096C71.193 12.48 70.449 13.02 69.849 13.716V21.996C70.425 22.668 71.157 23.196 72.045 23.58C72.957 23.964 73.929 24.156 74.961 24.156C76.713 24.156 78.177 23.556 79.353 22.356C80.553 21.156 81.153 19.656 81.153 17.856C81.153 16.056 80.553 14.556 79.353 13.356C78.153 12.132 76.689 11.52 74.961 11.52ZM104.062 24.912C103.007 25.728 101.903 26.34 100.751 26.748C99.5985 27.132 98.3385 27.324 96.9705 27.324C95.6265 27.324 94.3665 27.084 93.1905 26.604C92.0145 26.1 90.9945 25.428 90.1305 24.588C89.2665 23.748 88.5825 22.752 88.0785 21.6C87.5985 20.424 87.3585 19.164 87.3585 17.82C87.3585 16.5 87.5985 15.264 88.0785 14.112C88.5585 12.96 89.2065 11.964 90.0225 11.124C90.8385 10.284 91.8105 9.624 92.9385 9.144C94.0665 8.64 95.2665 8.388 96.5385 8.388C97.7865 8.388 98.9505 8.64 100.031 9.144C101.135 9.624 102.071 10.296 102.839 11.16C103.631 12 104.255 13.008 104.711 14.184C105.167 15.36 105.395 16.62 105.395 17.964V19.008H90.9225C91.1625 20.52 91.8585 21.78 93.0105 22.788C94.1625 23.772 95.5305 24.264 97.1145 24.264C98.0025 24.264 98.8545 24.12 99.6705 23.832C100.487 23.544 101.183 23.148 101.759 22.644L104.062 24.912ZM96.4665 11.412C95.0985 11.412 93.8985 11.868 92.8665 12.78C91.8585 13.692 91.2225 14.868 90.9585 16.308H101.831C101.567 14.916 100.931 13.752 99.9225 12.816C98.9385 11.88 97.7865 11.412 96.4665 11.412ZM97.6545 0.899999H101.975L97.3665 5.292H94.3425L97.6545 0.899999ZM114.408 27.324C112.416 27.324 110.796 26.808 109.548 25.776C108.3 24.744 107.676 23.4 107.676 21.744C107.676 20.016 108.336 18.66 109.656 17.676C110.976 16.668 112.788 16.164 115.092 16.164C115.98 16.164 116.844 16.26 117.684 16.452C118.524 16.62 119.328 16.86 120.096 17.172V15.228C120.096 13.932 119.712 12.96 118.944 12.312C118.176 11.664 117.072 11.34 115.632 11.34C114.792 11.34 113.916 11.472 113.004 11.736C112.092 11.976 111.072 12.36 109.944 12.888L108.612 10.188C109.98 9.54 111.276 9.072 112.5 8.784C113.724 8.472 114.936 8.316 116.136 8.316C118.512 8.316 120.348 8.892 121.644 10.044C122.964 11.172 123.624 12.78 123.624 14.868V27H120.096V25.416C119.28 26.064 118.404 26.544 117.468 26.856C116.532 27.168 115.512 27.324 114.408 27.324ZM111.132 21.672C111.132 22.56 111.504 23.28 112.248 23.832C113.016 24.384 114.012 24.66 115.236 24.66C116.196 24.66 117.084 24.516 117.9 24.228C118.716 23.94 119.448 23.508 120.096 22.932V19.764C119.4 19.38 118.668 19.104 117.9 18.936C117.132 18.744 116.292 18.648 115.38 18.648C114.084 18.648 113.052 18.924 112.284 19.476C111.516 20.028 111.132 20.76 111.132 21.672ZM127.772 27V8.676H131.372V10.404C132.044 9.732 132.812 9.216 133.676 8.856C134.54 8.496 135.488 8.316 136.52 8.316C137.744 8.316 138.848 8.592 139.832 9.144C140.816 9.672 141.596 10.416 142.172 11.376C142.916 10.368 143.804 9.612 144.836 9.108C145.892 8.58 147.068 8.316 148.364 8.316C150.38 8.316 152.024 8.988 153.296 10.332C154.592 11.652 155.24 13.368 155.24 15.48V27H151.64V16.092C151.64 14.652 151.256 13.524 150.488 12.708C149.744 11.868 148.724 11.448 147.428 11.448C146.54 11.448 145.736 11.652 145.016 12.06C144.296 12.468 143.672 13.08 143.144 13.896C143.192 14.136 143.228 14.4 143.252 14.688C143.276 14.952 143.288 15.216 143.288 15.48V27H139.724V16.092C139.724 14.652 139.34 13.524 138.572 12.708C137.828 11.868 136.808 11.448 135.512 11.448C134.648 11.448 133.868 11.64 133.172 12.024C132.476 12.384 131.876 12.936 131.372 13.68V27H127.772ZM175.254 24.912C174.198 25.728 173.094 26.34 171.942 26.748C170.79 27.132 169.53 27.324 168.162 27.324C166.818 27.324 165.558 27.084 164.382 26.604C163.206 26.1 162.186 25.428 161.322 24.588C160.458 23.748 159.774 22.752 159.27 21.6C158.79 20.424 158.55 19.164 158.55 17.82C158.55 16.5 158.79 15.264 159.27 14.112C159.75 12.96 160.398 11.964 161.214 11.124C162.03 10.284 163.002 9.624 164.13 9.144C165.258 8.64 166.458 8.388 167.73 8.388C168.978 8.388 170.142 8.64 171.222 9.144C172.326 9.624 173.262 10.296 174.03 11.16C174.822 12 175.446 13.008 175.902 14.184C176.358 15.36 176.586 16.62 176.586 17.964V19.008H162.114C162.354 20.52 163.05 21.78 164.202 22.788C165.354 23.772 166.722 24.264 168.306 24.264C169.194 24.264 170.046 24.12 170.862 23.832C171.678 23.544 172.374 23.148 172.95 22.644L175.254 24.912ZM167.658 11.412C166.29 11.412 165.09 11.868 164.058 12.78C163.05 13.692 162.414 14.868 162.15 16.308H173.022C172.758 14.916 172.122 13.752 171.114 12.816C170.13 11.88 168.978 11.412 167.658 11.412ZM180.375 19.8L179.907 0.899999H183.615L183.183 19.8H180.375ZM181.779 27.288C181.155 27.288 180.615 27.06 180.159 26.604C179.703 26.148 179.475 25.608 179.475 24.984C179.475 24.36 179.703 23.832 180.159 23.4C180.615 22.944 181.155 22.716 181.779 22.716C182.403 22.716 182.931 22.944 183.363 23.4C183.819 23.832 184.047 24.36 184.047 24.984C184.047 25.608 183.819 26.148 183.363 26.604C182.931 27.06 182.403 27.288 181.779 27.288Z" fill="#0C2146"/>
</svg>
